<?xml version="1.0" encoding="utf-8"?>
<!-- Generator: Adobe Illustrator 21.1.0, SVG Export Plug-In . SVG Version: 6.00 Build 0)  -->
<svg version="1.1" xmlns="http://www.w3.org/2000/svg" xmlns:xlink="http://www.w3.org/1999/xlink" x="0px" y="0px"
	 viewBox="0 0 480 480" style="enable-background:new 0 0 480 480;" xml:space="preserve">
<g id="Icones">
	<path style="fill:#FFFFFF;" d="M431.9191,299.9966c-0.0021-6.626-5.374-11.9966-12-11.9966h-24.0037
		c-6.1615,0-11.232,4.646-11.9153,10.6245V384h-84.0737C293.3332,384.04,288,389.3936,288,395.9961V420
		c0,6.626,5.3704,11.998,11.9963,12l120-0.0039c6.6302,0.002,12.0057-5.373,12.0037-12.0034L431.9191,299.9966z"/>
	<path style="fill:#FFFFFF;" d="M431.9963,60.0039c0.002-6.6304-5.3734-12.0059-12.0037-12.0039l-119.9963,0.0811
		c-6.626,0.002-11.9963,5.374-11.9963,12v24.0034c0,6.1616,4.6458,11.2319,10.6243,11.9155H384v84.0776
		C384.0402,186.6709,389.3937,192,395.9963,192H420c6.626,0,11.998-5.3701,12-11.9961L431.9963,60.0039z"/>
	<path style="fill:#FFFFFF;" d="M180.0037,48l-120,0.0039C53.3734,48.0015,47.998,53.377,48,60.0073l0.0809,119.9961
		c0.0021,6.626,5.374,11.9966,12,11.9966h24.0037c6.1615,0,11.232-4.646,11.9153-10.6245V96h84.0737
		C186.6668,95.96,192,90.6064,192,84.0039V60C192,53.374,186.6296,48.002,180.0037,48z"/>
	<path style="fill:#FFFFFF;" d="M181.3761,384H96v-84.0737C95.9598,293.333,90.6063,288,84.0037,288H60
		c-6.626,0-11.998,5.3701-12,11.9961l0.0037,120c-0.002,6.6304,5.3734,12.0059,12.0037,12.0039l119.9963-0.0811
		c6.626-0.002,11.9963-5.374,11.9963-12V395.915C192,389.7539,187.3544,384.6836,181.3761,384z"/>
</g>
<g id="Mesures_x2C__etc." style="display:none;">
</g>
</svg>
