<?xml version="1.0" encoding="utf-8"?>
<!-- Generator: Adobe Illustrator 22.0.1, SVG Export Plug-In . SVG Version: 6.00 Build 0)  -->
<svg version="1.1" id="Layer_1" xmlns="http://www.w3.org/2000/svg" xmlns:xlink="http://www.w3.org/1999/xlink" x="0px" y="0px"
	 viewBox="0 0 480 480" style="enable-background:new 0 0 480 480;" xml:space="preserve">
<style type="text/css">
	.st0{fill:#FFFFFF;}
	.st1{display:none;}
</style>
<g id="Icones">
	<path class="st0" d="M396,84h-12H96H60c-6.6,0-12,5.4-12,12v264c0,6.6,5.4,12,12,12h36h31c3.2,0,6.2,1.3,8.5,3.5l60,60
		c7.6,7.6,20.5,2.2,20.5-8.5v-43c0-6.6,5.4-12,12-12h192c6.6,0,12-5.4,12-12v-24v-12V96c0-6.6-5.4-12-12-12H396z M372,324H108
		c-6.6,0-12-5.4-12-12V144c0-6.6,5.4-12,12-12h264c6.6,0,12,5.4,12,12v168C384,318.6,378.6,324,372,324z"/>
	<path class="st0" d="M336,204H144c-6.6,0-12-5.4-12-12l0,0c0-6.6,5.4-12,12-12h192c6.6,0,12,5.4,12,12l0,0
		C348,198.6,342.6,204,336,204z"/>
	<path class="st0" d="M336,276H144c-6.6,0-12-5.4-12-12l0,0c0-6.6,5.4-12,12-12h192c6.6,0,12,5.4,12,12l0,0
		C348,270.6,342.6,276,336,276z"/>
</g>
<g id="Mesures_x2C__etc." class="st1">
</g>
</svg>
