<?xml version="1.0" encoding="UTF-8" standalone="no"?>
<!-- Generator: Adobe Illustrator 21.1.0, SVG Export Plug-In . SVG Version: 6.00 Build 0)  -->

<svg
   xmlns:dc="http://purl.org/dc/elements/1.1/"
   xmlns:cc="http://creativecommons.org/ns#"
   xmlns:rdf="http://www.w3.org/1999/02/22-rdf-syntax-ns#"
   xmlns:svg="http://www.w3.org/2000/svg"
   xmlns="http://www.w3.org/2000/svg"
   xmlns:sodipodi="http://sodipodi.sourceforge.net/DTD/sodipodi-0.dtd"
   xmlns:inkscape="http://www.inkscape.org/namespaces/inkscape"
   version="1.1"
   x="0px"
   y="0px"
   viewBox="0 0 480 480"
   style="enable-background:new 0 0 480 480;"
   xml:space="preserve"
   id="svg1086"
   sodipodi:docname="player-close.svg"
   inkscape:version="0.92.1 r15371"><metadata
     id="metadata1092"><rdf:RDF><cc:Work
         rdf:about=""><dc:format>image/svg+xml</dc:format><dc:type
           rdf:resource="http://purl.org/dc/dcmitype/StillImage" /><dc:title></dc:title></cc:Work></rdf:RDF></metadata><defs
     id="defs1090" /><sodipodi:namedview
     pagecolor="#ffffff"
     bordercolor="#666666"
     borderopacity="1"
     objecttolerance="10"
     gridtolerance="10"
     guidetolerance="10"
     inkscape:pageopacity="0"
     inkscape:pageshadow="2"
     inkscape:window-width="1920"
     inkscape:window-height="1017"
     id="namedview1088"
     showgrid="false"
     inkscape:pagecheckerboard="true"
     inkscape:zoom="0.49166667"
     inkscape:cx="240"
     inkscape:cy="240"
     inkscape:window-x="1912"
     inkscape:window-y="-8"
     inkscape:window-maximized="1"
     inkscape:current-layer="svg1086" /><g
     id="Icones"
     transform="rotate(134.79051,240,240)"><path
       style="fill:#ffffff"
       d="M 420,216 H 264 V 60 c 0,-6.6274 -5.3726,-12 -12,-12 h -24 c -6.6274,0 -12,5.3726 -12,12 V 216 H 60 c -6.6274,0 -12,5.3726 -12,12 v 24 c 0,6.6274 5.3726,12 12,12 h 156 v 156 c 0,6.6274 5.3726,12 12,12 h 24 c 6.6274,0 12,-5.3726 12,-12 V 264 h 156 c 6.6274,0 12,-5.3726 12,-12 v -24 c 0,-6.6274 -5.3726,-12 -12,-12 z"
       id="path1082"
       inkscape:connector-curvature="0" /></g><g
     id="Mesures_x2C__etc."
     style="display:none;" /></svg>