<?xml version="1.0" encoding="utf-8"?>
<!-- Generator: Adobe Illustrator 23.0.1, SVG Export Plug-In . SVG Version: 6.00 Build 0)  -->
<svg version="1.1" id="Layer_1" xmlns="http://www.w3.org/2000/svg" xmlns:xlink="http://www.w3.org/1999/xlink" x="0px" y="0px"
	 viewBox="0 0 312 332.8" style="enable-background:new 0 0 312 332.8;" xml:space="preserve">
<style type="text/css">
	.st0{fill:#FFFFFF;}
</style>
<title>player-pause</title>
<path class="st0" d="M108.6,300.6H40c-5.4,0-9.8-4.4-9.8-9.8V38.6c0-5.4,4.4-9.8,9.8-9.8h68.6c5.4,0,9.8,4.4,9.8,9.8v252.2
	C118.4,296.2,114,300.6,108.6,300.6C108.6,300.6,108.6,300.6,108.6,300.6z"/>
<path class="st0" d="M275.2,300.6h-68.6c-5.4,0-9.8-4.4-9.8-9.8V38.6c0-5.4,4.4-9.8,9.8-9.8h68.6c5.4,0,9.8,4.4,9.8,9.8v252.2
	C285,296.2,280.6,300.6,275.2,300.6L275.2,300.6z"/>
</svg>
