<svg xmlns="http://www.w3.org/2000/svg" viewBox="0 0 428.74 320.82"><defs><style>.a{fill:#fff;}</style></defs><title>player-soundMute</title><path class="a" d="M45.54,166.48h91.57a12,12,0,0,0,7.8-2.88l96.83-82.8a12,12,0,0,1,19.8,9.12V386.69a12,12,0,0,1-19.8,9.12L144.91,313a12,12,0,0,0-7.8-2.88H45.54a12,12,0,0,1-12-12V178.48A12,12,0,0,1,45.54,166.48Z" transform="translate(-33.54 -77.9)"/><path class="a" d="M424.82,153.45l-50.91,50.91L323,153.45a12,12,0,0,0-17,0l-17,17a12,12,0,0,0,0,17L340,238.31l-50.91,50.91a12,12,0,0,0,0,17l17,17a12,12,0,0,0,17,0l50.92-50.91,50.91,50.91a12,12,0,0,0,17,0l17-17a12,12,0,0,0,0-17l-50.91-50.91,50.91-50.92a12,12,0,0,0,0-17l-17-17a12,12,0,0,0-17,0Z" transform="translate(-33.54 -77.9)"/></svg>