<?xml version="1.0" encoding="utf-8"?>
<!-- Generator: Adobe Illustrator 21.1.0, SVG Export Plug-In . SVG Version: 6.00 Build 0)  -->
<svg version="1.1" xmlns="http://www.w3.org/2000/svg" xmlns:xlink="http://www.w3.org/1999/xlink" x="0px" y="0px"
	 viewBox="0 0 480 480" style="enable-background:new 0 0 480 480;" xml:space="preserve">
<g id="Icones">
	<rect x="48" y="144" style="fill:#FFFFFF;" width="48" height="192"/>
	<rect x="96" y="144" style="fill:#FFFFFF;" width="60" height="48"/>
	<rect x="96" y="288" style="fill:#FFFFFF;" width="60" height="48"/>
	<path style="fill:#FFFFFF;" d="M156,144v48c26.4678,0,48,21.5322,48,48s-21.5322,48-48,48v48c52.9346,0,96-43.0654,96-96
		S208.9346,144,156,144z"/>
	<g>
		<path style="fill:#FFFFFF;" d="M348,240c0-85.311-68.4824-154.6157-153.4712-155.9678C256.3447,108.8374,300,169.3169,300,240
			s-43.6553,131.1626-105.4712,155.9678C279.5176,394.6157,348,325.311,348,240z"/>
	</g>
	<g>
		<path style="fill:#FFFFFF;" d="M444,240c0-102.7642-80.7349-186.6704-182.2363-191.7549C340.0732,76.7427,396,151.8384,396,240
			s-55.9268,163.2573-134.2363,191.7549C363.2651,426.6704,444,342.7642,444,240z"/>
	</g>
</g>
<g id="Mesures_x2C__etc." style="display:none;">
</g>
</svg>
