<svg xmlns="http://www.w3.org/2000/svg" viewBox="0 0 438.18 396.99"><defs><style>.a{fill:#fff;}</style></defs><title>player-soundHi</title><path class="a" d="M346.85,308A191.86,191.86,0,0,0,305.72,97.46h0l-25.78,25.79a12,12,0,0,0-.6,16.31,144,144,0,0,1,0,187.33,12,12,0,0,0,.6,16.31L305.72,369h0a191.26,191.26,0,0,0,41.13-61Z" transform="translate(-19.78 -34.73)"/><path class="a" d="M458,233.22A287.15,287.15,0,0,0,382.24,38.59a12,12,0,0,0-17.31-.34L339.66,63.52a240,240,0,0,1,0,339.41l25.27,25.27a12,12,0,0,0,17.31-.34A287.15,287.15,0,0,0,458,233.22Z" transform="translate(-19.78 -34.73)"/><path class="a" d="M31.78,161.4h91.57a12,12,0,0,0,7.8-2.88L228,75.72a12,12,0,0,1,19.8,9.12V381.61a12,12,0,0,1-19.8,9.12l-96.83-82.8a12,12,0,0,0-7.8-2.88H31.78a12,12,0,0,1-12-12V173.4A12,12,0,0,1,31.78,161.4Z" transform="translate(-19.78 -34.73)"/></svg>