<?xml version="1.0" encoding="UTF-8" standalone="no"?>
<!-- Generator: Adobe Illustrator 21.1.0, SVG Export Plug-In . SVG Version: 6.00 Build 0)  -->

<svg
   xmlns:dc="http://purl.org/dc/elements/1.1/"
   xmlns:cc="http://creativecommons.org/ns#"
   xmlns:rdf="http://www.w3.org/1999/02/22-rdf-syntax-ns#"
   xmlns:svg="http://www.w3.org/2000/svg"
   xmlns="http://www.w3.org/2000/svg"
   xmlns:sodipodi="http://sodipodi.sourceforge.net/DTD/sodipodi-0.dtd"
   xmlns:inkscape="http://www.inkscape.org/namespaces/inkscape"
   version="1.1"
   x="0px"
   y="0px"
   viewBox="0 0 480 480"
   style="enable-background:new 0 0 480 480;"
   xml:space="preserve"
   id="svg12"
   sodipodi:docname="player-info.svg"
   inkscape:version="0.92.1 r15371"><metadata
     id="metadata18"><rdf:RDF><cc:Work
         rdf:about=""><dc:format>image/svg+xml</dc:format><dc:type
           rdf:resource="http://purl.org/dc/dcmitype/StillImage" /><dc:title></dc:title></cc:Work></rdf:RDF></metadata><defs
     id="defs16" /><sodipodi:namedview
     pagecolor="#ffffff"
     bordercolor="#666666"
     borderopacity="1"
     objecttolerance="10"
     gridtolerance="10"
     guidetolerance="10"
     inkscape:pageopacity="0"
     inkscape:pageshadow="2"
     inkscape:window-width="1920"
     inkscape:window-height="1017"
     id="namedview14"
     showgrid="false"
     inkscape:pagecheckerboard="true"
     inkscape:zoom="1.7708333"
     inkscape:cx="240"
     inkscape:cy="240"
     inkscape:window-x="1912"
     inkscape:window-y="-8"
     inkscape:window-maximized="1"
     inkscape:current-layer="svg12" /><g
     id="Icones"
     style="fill:#ffffff" /><g
     id="Mesures_x2C__etc."
     style="display:none;" /><g
     id="g2024"
     transform="translate(6.2117659,-22.02353)"
     style="fill:#ffffff"><g
       id="Icones-1"
       style="fill:#ffffff"><path
         id="path2006"
         d="m 288,384 c -6.6274,0 -12,-5.3726 -12,-12 V 204 168 c 0,-6.6274 -5.3726,-12 -12,-12 h -84 c -6.6274,0 -12,5.3726 -12,12 v 24 c 0,6.6274 5.3726,12 12,12 h 24 v 168 c 0,6.6274 -5.3726,12 -12,12 h -12 c -6.6274,0 -12,5.3726 -12,12 v 36 h 36 72 36 v -36 c 0,-6.6274 -5.3726,-12 -12,-12 z"
         inkscape:connector-curvature="0"
         style="fill:#ffffff" /><path
         id="path2008"
         d="m 240,120 v 0 c -19.8823,0 -36,-16.1177 -36,-36 v 0 c 0,-19.8822 16.1177,-36 36,-36 v 0 c 19.8822,0 36,16.1177 36,36 v 0 c 0,19.8823 -16.1177,36 -36,36 z"
         inkscape:connector-curvature="0"
         style="fill:#ffffff" /></g><g
       style="display:none;fill:#ffffff"
       id="Mesures_x2C__etc.-3" /></g></svg>