<?xml version="1.0" encoding="utf-8"?>
<!-- Generator: Adobe Illustrator 23.0.1, SVG Export Plug-In . SVG Version: 6.00 Build 0)  -->
<svg version="1.1" id="Layer_1" xmlns="http://www.w3.org/2000/svg" xmlns:xlink="http://www.w3.org/1999/xlink" x="0px" y="0px"
	 viewBox="0 0 342.2 320.8" style="enable-background:new 0 0 342.2 320.8;" xml:space="preserve">
<style type="text/css">
	.st0{fill:#FFFFFF;}
</style>
<title>player-soundLow</title>
<path class="st0" d="M263.4,221.2c24.5-58,11.4-125.1-33.1-169.6l0,0l-20.8,20.8c-3.6,3.6-3.8,9.3-0.5,13.1
	c37.2,43.4,37.2,107.5,0,150.9c-3.3,3.8-3.1,9.6,0.5,13.1l20.8,20.8l0,0C244.4,256.2,255.7,239.5,263.4,221.2L263.4,221.2z"/>
<path class="st0" d="M9.7,103.1h73.8c2.3,0,4.5-0.8,6.3-2.3l78-66.7c4.1-3.5,10.2-3,13.6,1.1c1.5,1.8,2.3,4,2.3,6.3v239.1
	c0,5.3-4.3,9.7-9.7,9.7c-2.3,0-4.5-0.8-6.3-2.3l-78-66.7c-1.8-1.5-4-2.3-6.3-2.3H9.7c-5.3,0-9.7-4.3-9.7-9.7v-96.4
	C0,107.4,4.3,103.1,9.7,103.1z"/>
</svg>
