<svg xmlns="http://www.w3.org/2000/svg" viewBox="0 0 336 336.01"><defs><style>.a{fill:#fff;}</style></defs><title>player-fullscreenExit</title><path class="a" d="M215.92,84a12,12,0,0,0-12-12h-24A12,12,0,0,0,168,82.62V168H84a12,12,0,0,0-12,12v24a12,12,0,0,0,12,12H204a12,12,0,0,0,12-12Z" transform="translate(-72 -72)"/><path class="a" d="M397.38,168H312V84a12,12,0,0,0-12-12H276a12,12,0,0,0-12,12V204a12,12,0,0,0,12,12l120-.08a12,12,0,0,0,12-12v-24A12,12,0,0,0,397.38,168Z" transform="translate(-72 -72)"/><path class="a" d="M216,276a12,12,0,0,0-12-12l-120,.08a12,12,0,0,0-12,12v24A12,12,0,0,0,82.62,312H168v84.07A12,12,0,0,0,180,408h24a12,12,0,0,0,12-12Z" transform="translate(-72 -72)"/><path class="a" d="M396,264H276a12,12,0,0,0-12,12l.08,120a12,12,0,0,0,12,12h24A12,12,0,0,0,312,397.38V312h84a12,12,0,0,0,12-12V276A12,12,0,0,0,396,264Z" transform="translate(-72 -72)"/></svg>